<?xml version="1.0" encoding="utf-8"?>
<!-- Generator: Adobe Illustrator 16.0.4, SVG Export Plug-In . SVG Version: 6.00 Build 0)  -->
<!DOCTYPE svg PUBLIC "-//W3C//DTD SVG 1.1//EN" "http://www.w3.org/Graphics/SVG/1.1/DTD/svg11.dtd">
<svg version="1.1" id="large_x5F_cloud" xmlns="http://www.w3.org/2000/svg" xmlns:xlink="http://www.w3.org/1999/xlink" x="0px"
	 y="0px" width="200px" height="150px" viewBox="0 0 200 150" enable-background="new 0 0 200 150" xml:space="preserve">
<g>
	<ellipse id="left_circle_1_" fill="#E1ECF2" cx="28.031" cy="93.106" rx="18.646" ry="18.771"/>
	<ellipse id="left_center_circle" fill="#E1ECF2" cx="61.034" cy="80.675" rx="29.274" ry="30.952"/>
	<ellipse id="center_circle_1_" fill="#E1ECF2" cx="117.345" cy="70.047" rx="45.31" ry="41.953"/>
	<ellipse id="right_circle_1_" fill="#E1ECF2" cx="160.417" cy="84.217" rx="27.223" ry="27.783"/>
	<g id="left_white_shadow">
		<path fill="#F1F8F9" d="M19.345,76.479c0,0-2.284,16.938,2.813,17.341c0,0,9.074-3.977,10.1-18.986
			C32.257,74.834,27.208,72.564,19.345,76.479z"/>
	</g>
	<g id="left_center_white_shadow">
		<path fill="#F1F8F9" d="M55.161,50.375c0,0-12.772,4.103-8.95,23.308c0,0,2.657,14.45,8.484,15.196c0,0,14.67-1.117,20.824-35.053
			C75.519,53.826,66.302,47.485,55.161,50.375z"/>
	</g>
	<g id="center_white_shadow">
		<path fill="#F1F8F9" d="M100.657,31.077c0,0-15.197,20.044-5.781,40.089c0,0,10.023,23.773,23.261,23.82
			c0,0,13.332-4.662,20.184-21.117c0,0,8.438-15.709,14.964-14.591c0,0,4.755-2.89,7.272-2.145c0,0-5.455-18.505-26.805-26.15
			C133.753,30.983,119.257,24.317,100.657,31.077z"/>
	</g>
	<g id="right_white_shadow">
		<path fill="#F1F8F9" d="M159.424,56.373c0,0-15.103,2.176-10.752,22.562c4.35,20.386,27.43,18.379,28.278,18.148
			c2.052-0.559,7.812-3.51,9.82-6.525C189.132,87.016,189.318,57.367,159.424,56.373z"/>
	</g>
	<rect id="Rectangle" x="27.286" y="98.855" fill="#E1ECF2" width="132.23" height="13.051"/>
</g>
</svg>
