<?xml version="1.0" encoding="utf-8"?>
<!-- Generator: Adobe Illustrator 16.0.4, SVG Export Plug-In . SVG Version: 6.00 Build 0)  -->
<!DOCTYPE svg PUBLIC "-//W3C//DTD SVG 1.1//EN" "http://www.w3.org/Graphics/SVG/1.1/DTD/svg11.dtd">
<svg version="1.1" id="small_x5F_cloud" xmlns="http://www.w3.org/2000/svg" xmlns:xlink="http://www.w3.org/1999/xlink" x="0px"
	 y="0px" width="120px" height="80px" viewBox="0 0 120 80" enable-background="new 0 0 120 80" xml:space="preserve">
<g>
	<ellipse id="left_circle_2_" fill="#E1ECF2" cx="48.5" cy="42" rx="14.167" ry="14"/>
	<ellipse id="right_circle_2_" fill="#E1ECF2" cx="72.5" cy="35.25" rx="20.667" ry="20.75"/>
	<g id="left_white_shadow_2_">
		<path fill="#F1F8F9" d="M52.891,28.688c0,0-9.167-3.057-11.125,3.469c0,0-0.598,9.011,1.234,9.678
			C43,41.834,50.558,44.354,52.891,28.688z"/>
	</g>
	<g id="right_white_shadow_2_">
		<path fill="#F1F8F9" d="M66.375,15.438c0,0-8.719,6.578-1.219,20.078c0,0,14.078,16.975,26.109,2.078
			c0,0,4.453-7.438-3.484-16.344C87.781,21.25,79.672,11.516,66.375,15.438z"/>
	</g>
	<rect id="rectangle_1_" x="49" y="49" fill="#E1ECF2" width="25" height="7"/>
</g>
</svg>
