<?xml version="1.0" encoding="utf-8"?>
<!-- Generator: Adobe Illustrator 16.0.4, SVG Export Plug-In . SVG Version: 6.00 Build 0)  -->
<!DOCTYPE svg PUBLIC "-//W3C//DTD SVG 1.1//EN" "http://www.w3.org/Graphics/SVG/1.1/DTD/svg11.dtd">
<svg version="1.1" id="Calque_1" xmlns="http://www.w3.org/2000/svg" xmlns:xlink="http://www.w3.org/1999/xlink" x="0px" y="0px"
	 width="200px" height="100px" viewBox="0 0 200 100" enable-background="new 0 0 200 100" xml:space="preserve">
<g>
	<g>
		<path fill="#2C2522" d="M74.232,33.125c0,2.878-2.328,5.208-5.207,5.208c-2.874,0-5.203-2.33-5.203-5.208
			c0-2.874,2.33-5.205,5.203-5.205C71.904,27.92,74.232,30.251,74.232,33.125z"/>
		<path fill="#2C2522" d="M80.043,55.038l-8.488-3.022L67.746,41.56c-0.946-1.828-2.468-3.099-4.262-3.429
			c-4.209-0.786-5.678,4.02-5.678,4.02l-3.134,13.168l8.892-5.188l-0.808-1.747c-0.177-0.38-0.01-0.829,0.369-1.002
			c0.379-0.18,0.829-0.014,1.005,0.369l1.061,2.288c0.001,0.007,0.006,0.011,0.009,0.014c0.009,0.012,0.009,0.024,0.013,0.038
			l2.05,4.419l0.205,0.419c0.121,0.235,0.553,0.677,0.957,0.843l8.244,3.146l-5.265,9.051L64.5,61.486l1.382-6.347l-1.679-3.628
			l-10.017,5.844L50.31,73.633l-8.207,12.84c-0.303,0.426-0.458,0.936-0.458,1.545c-0.119,1.028,0.154,1.919,0.82,2.681
			c0.664,0.756,1.516,1.193,2.543,1.318c1.515,0.117,2.667-0.489,3.452-1.82l8.754-13.74c0.18-0.366,0.421-0.876,0.728-1.553
			l1.737-7.331l8.092,6.638l-9.563,16.439c-0.261,0.451-0.108,1.032,0.342,1.295c0.15,0.09,0.312,0.132,0.475,0.132
			c0.326,0,0.645-0.171,0.82-0.473l8.171-14.049l-0.012,11.138c0.368,1.758,1.487,2.728,3.365,2.911
			c1.03,0.062,1.922-0.24,2.68-0.908c0.755-0.673,1.165-1.488,1.223-2.455c0-0.185,0-0.452,0-0.818l-0.067-13.893
			c0-1.097-0.253-2.191-0.951-2.887l-1.428-1.349l5.695-9.797c1.513,0.091,2.601-0.771,2.821-2.267
			C81.489,56.246,80.83,55.334,80.043,55.038z"/>
		<path fill="#2C2522" d="M50.692,29.257c-4.116-0.999-8.25,1.529-9.242,5.64l-3.336,13.793l11.228,2.791l-0.37,1.486l-11.22-2.787
			l-1.088,4.496c-0.8,3.289,0.583,4.884,3.879,5.733c0.481,0.126,5.752,1.34,7.854,1.823l-0.831,3.335
			c-0.129,0.51,0.183,1.031,0.697,1.159c0.08,0.02,0.331,0.073,0.41,0.073c0.426-0.003,0.812-0.293,0.92-0.726l6.739-27.575
			C57.324,34.39,54.802,30.25,50.692,29.257z M51.182,45.098l-8.16-2.039l1.652-6.845l1.364,0.328l-1.326,5.491l5.451,1.363
			l1.369-5.435l1.361,0.342L51.182,45.098z"/>
	</g>
</g>
<g>
	<g>
		<path fill="#2C2522" d="M155.742,13.68c0,3.354-2.713,6.07-6.068,6.07c-3.35,0-6.064-2.717-6.064-6.07
			c0-3.35,2.717-6.066,6.064-6.066C153.029,7.613,155.742,10.33,155.742,13.68z"/>
		<path fill="#2C2522" d="M162.516,39.219l-9.894-3.522l-4.439-12.187c-1.103-2.13-2.877-3.611-4.968-3.996
			c-4.905-0.916-6.617,4.685-6.617,4.685l-3.652,15.348l10.363-6.046l-0.941-2.036c-0.207-0.443-0.012-0.967,0.43-1.168
			c0.441-0.209,0.967-0.017,1.172,0.43l1.236,2.667c0.002,0.008,0.008,0.013,0.011,0.017c0.011,0.014,0.011,0.028,0.015,0.044
			l2.39,5.15l0.239,0.488c0.141,0.274,0.645,0.789,1.114,0.982l9.608,3.666l-6.137,10.549l-8.047-7.555l1.611-7.397l-1.957-4.228
			l-11.674,6.811l-4.518,18.971l-9.564,14.965c-0.354,0.497-0.533,1.091-0.533,1.801c-0.14,1.198,0.18,2.237,0.955,3.125
			c0.773,0.881,1.766,1.391,2.965,1.536c1.765,0.137,3.107-0.57,4.023-2.122l10.203-16.014c0.209-0.427,0.49-1.021,0.848-1.81
			l2.025-8.544l9.431,7.735l-11.146,19.16c-0.305,0.526-0.127,1.203,0.397,1.51c0.175,0.104,0.363,0.153,0.554,0.153
			c0.381,0,0.752-0.199,0.956-0.551l9.523-16.374l-0.014,12.981c0.429,2.049,1.733,3.179,3.921,3.393
			c1.201,0.071,2.241-0.28,3.125-1.059c0.88-0.784,1.356-1.734,1.424-2.861c0-0.215,0-0.527,0-0.954l-0.078-16.191
			c0-1.278-0.295-2.554-1.108-3.364l-1.665-1.572l6.639-11.418c1.763,0.105,3.03-0.898,3.287-2.642
			C164.2,40.627,163.432,39.564,162.516,39.219z"/>
		<path fill="#2C2522" d="M128.307,9.171c-4.797-1.164-9.615,1.783-10.771,6.573l-3.889,16.076l13.086,3.252l-0.431,1.732
			l-13.077-3.248l-1.268,5.24c-0.934,3.833,0.68,5.692,4.521,6.682c0.562,0.147,6.704,1.562,9.154,2.126l-0.969,3.887
			c-0.15,0.594,0.214,1.202,0.812,1.351c0.094,0.023,0.387,0.086,0.479,0.086c0.497-0.004,0.945-0.342,1.072-0.846l7.854-32.14
			C136.035,15.153,133.096,10.329,128.307,9.171z M128.877,27.634l-9.51-2.377l1.926-7.978l1.59,0.383l-1.546,6.4l6.353,1.588
			l1.597-6.334l1.586,0.399L128.877,27.634z"/>
	</g>
</g>
</svg>
