<?xml version="1.0" encoding="utf-8"?>
<!-- Generator: Adobe Illustrator 16.0.4, SVG Export Plug-In . SVG Version: 6.00 Build 0)  -->
<!DOCTYPE svg PUBLIC "-//W3C//DTD SVG 1.1//EN" "http://www.w3.org/Graphics/SVG/1.1/DTD/svg11.dtd">
<svg version="1.1" id="Calque_1" xmlns="http://www.w3.org/2000/svg" xmlns:xlink="http://www.w3.org/1999/xlink" x="0px" y="0px"
	 width="500px" height="150px" viewBox="0 0 500 150" enable-background="new 0 0 500 150" xml:space="preserve">
<g id="Cloud_7_" opacity="0.2">
	<ellipse id="left_circle_1_" fill="#E1ECF2" cx="25.207" cy="79.468" rx="12.989" ry="13.064"/>
	<ellipse id="center_circle_1_" fill="#E1ECF2" cx="52.188" cy="71.504" rx="23.89" ry="21.028"/>
	<ellipse id="right_circle_1_" fill="#E1ECF2" cx="84.256" cy="74.064" rx="18.787" ry="18.526"/>
	<g id="left_white_shadow_1_">
		<path fill="#EFF9FA" d="M28.88,66.923c0,0-10.921-3.17-10.988,6.068c0,0,1.093,11.695,5.963,4.929
			C23.855,77.92,29.769,70.363,28.88,66.923z"/>
	</g>
	<g id="center_white_shadow_1_">
		<path fill="#F1F8F9" d="M63.863,72.589c0,0,4.66-10.577,8.216-12.587c0,0-8.273-12.95-26.886-8.601c0,0-5.296,7.876-3.73,15.182
			c0,0,1.632,9.926,9.547,12.304C51.01,78.888,60.605,77.174,63.863,72.589z"/>
	</g>
	<g id="right_white_shadow_1_">
		<path fill="#F1F8F9" d="M77.704,56.727c0,0,12.061-4.9,20.817,5.276c0,0,5.973,5.973,4.117,15.946c0,0-5.567,8.727-17.917,4.146
			c0,0-7.393-2.291-9.8-10.322C74.92,71.774,73.297,59.857,77.704,56.727z"/>
	</g>
	<rect id="rectangle_1_" x="24.85" y="86.038" fill="#E1ECF2" width="60.044" height="6.494"/>
</g>
<g id="Cloud_8_" opacity="0.2">
	<ellipse id="left_circle_2_" fill="#E1ECF2" cx="97.573" cy="77.612" rx="12.989" ry="13.064"/>
	<ellipse id="center_circle_2_" fill="#E1ECF2" cx="124.554" cy="69.649" rx="23.89" ry="21.028"/>
	<ellipse id="right_circle_2_" fill="#E1ECF2" cx="156.622" cy="72.208" rx="18.787" ry="18.526"/>
	<g id="left_white_shadow_2_">
		<path fill="#EFF9FA" d="M101.246,65.067c0,0-10.921-3.17-10.988,6.068c0,0,1.093,11.695,5.963,4.929
			C96.221,76.064,102.135,68.507,101.246,65.067z"/>
	</g>
	<g id="center_white_shadow_3_">
		<path fill="#F1F8F9" d="M136.229,70.733c0,0,4.66-10.577,8.216-12.586c0,0-8.273-12.95-26.886-8.601c0,0-5.296,7.876-3.73,15.182
			c0,0,1.632,9.926,9.547,12.304C123.376,77.032,132.971,75.318,136.229,70.733z"/>
	</g>
	<g id="right_white_shadow_2_">
		<path fill="#F1F8F9" d="M150.07,54.871c0,0,12.061-4.9,20.817,5.276c0,0,5.973,5.973,4.117,15.946c0,0-5.567,8.727-17.918,4.146
			c0,0-7.393-2.291-9.799-10.322C147.287,69.918,145.663,58.002,150.07,54.871z"/>
	</g>
	<rect id="rectangle_2_" x="97.216" y="84.183" fill="#E1ECF2" width="60.044" height="6.494"/>
</g>
<g id="Cloud_9_" opacity="0.2">
	<ellipse id="left_circle_5_" fill="#E1ECF2" cx="167.156" cy="77.612" rx="12.989" ry="13.064"/>
	<ellipse id="center_circle_5_" fill="#E1ECF2" cx="194.137" cy="69.649" rx="23.89" ry="21.028"/>
	<ellipse id="right_circle_3_" fill="#E1ECF2" cx="226.205" cy="72.208" rx="18.787" ry="18.526"/>
	<g id="left_white_shadow_5_">
		<path fill="#EFF9FA" d="M170.829,65.067c0,0-10.921-3.17-10.988,6.068c0,0,1.093,11.695,5.963,4.929
			C165.804,76.064,171.718,68.507,170.829,65.067z"/>
	</g>
	<g id="center_white_shadow_5_">
		<path fill="#F1F8F9" d="M205.812,70.733c0,0,4.66-10.577,8.216-12.586c0,0-8.273-12.95-26.886-8.601c0,0-5.295,7.876-3.73,15.182
			c0,0,1.633,9.926,9.548,12.304C192.959,77.032,202.554,75.318,205.812,70.733z"/>
	</g>
	<g id="right_white_shadow_5_">
		<path fill="#F1F8F9" d="M219.653,54.871c0,0,12.061-4.9,20.817,5.276c0,0,5.973,5.973,4.117,15.946c0,0-5.567,8.727-17.918,4.146
			c0,0-7.393-2.291-9.8-10.322C216.869,69.918,215.246,58.002,219.653,54.871z"/>
	</g>
	<rect id="rectangle_4_" x="166.799" y="84.183" fill="#E1ECF2" width="60.044" height="6.494"/>
</g>
<g id="Cloud_10_" opacity="0.2">
	<ellipse id="left_circle_7_" fill="#E1ECF2" cx="175.506" cy="107.301" rx="12.989" ry="13.064"/>
	<ellipse id="center_circle_7_" fill="#E1ECF2" cx="202.487" cy="99.338" rx="23.89" ry="21.028"/>
	<ellipse id="right_circle_4_" fill="#E1ECF2" cx="234.555" cy="101.897" rx="18.787" ry="18.526"/>
	<g id="left_white_shadow_7_">
		<path fill="#EFF9FA" d="M179.179,94.756c0,0-10.921-3.17-10.988,6.068c0,0,1.093,11.695,5.963,4.929
			C174.154,105.753,180.067,98.196,179.179,94.756z"/>
	</g>
	<g id="center_white_shadow_7_">
		<path fill="#F1F8F9" d="M214.162,100.422c0,0,4.66-10.576,8.216-12.586c0,0-8.273-12.95-26.886-8.602c0,0-5.296,7.877-3.73,15.183
			c0,0,1.632,9.927,9.547,12.304C201.309,106.721,210.904,105.007,214.162,100.422z"/>
	</g>
	<g id="right_white_shadow_7_">
		<path fill="#F1F8F9" d="M228.002,84.56c0,0,12.061-4.899,20.817,5.276c0,0,5.973,5.973,4.117,15.946c0,0-5.566,8.727-17.917,4.146
			c0,0-7.394-2.291-9.8-10.322C225.219,99.606,223.596,87.69,228.002,84.56z"/>
	</g>
	<rect id="rectangle_6_" x="175.148" y="113.871" fill="#E1ECF2" width="60.044" height="6.494"/>
</g>
<g id="Cloud_11_" opacity="0.2">
	<ellipse id="left_circle_9_" fill="#E1ECF2" cx="244.161" cy="94.312" rx="12.989" ry="13.063"/>
	<ellipse id="center_circle_9_" fill="#E1ECF2" cx="271.142" cy="86.349" rx="23.89" ry="21.028"/>
	<ellipse id="right_circle_6_" fill="#E1ECF2" cx="303.21" cy="88.908" rx="18.787" ry="18.526"/>
	<g id="left_white_shadow_9_">
		<path fill="#EFF9FA" d="M247.834,81.768c0,0-10.922-3.17-10.988,6.068c0,0,1.093,11.694,5.963,4.929
			C242.809,92.765,248.723,85.207,247.834,81.768z"/>
	</g>
	<g id="center_white_shadow_9_">
		<path fill="#F1F8F9" d="M282.817,87.434c0,0,4.659-10.577,8.216-12.586c0,0-8.273-12.95-26.887-8.601
			c0,0-5.296,7.876-3.729,15.182c0,0,1.632,9.927,9.547,12.305C269.964,93.732,279.559,92.018,282.817,87.434z"/>
	</g>
	<g id="right_white_shadow_9_">
		<path fill="#F1F8F9" d="M296.657,71.571c0,0,12.062-4.9,20.817,5.277c0,0,5.973,5.973,4.117,15.946c0,0-5.567,8.727-17.918,4.146
			c0,0-7.394-2.29-9.8-10.321C293.874,86.618,292.251,74.702,296.657,71.571z"/>
	</g>
	<rect id="rectangle_9_" x="243.804" y="100.883" fill="#E1ECF2" width="60.044" height="6.494"/>
</g>
<g id="Cloud_12_" opacity="0.2">
	<ellipse id="left_circle_11_" fill="#E1ECF2" cx="311.888" cy="102.662" rx="12.989" ry="13.064"/>
	<ellipse id="center_circle_11_" fill="#E1ECF2" cx="338.87" cy="94.699" rx="23.89" ry="21.028"/>
	<ellipse id="right_circle_7_" fill="#E1ECF2" cx="370.937" cy="97.259" rx="18.788" ry="18.526"/>
	<g id="left_white_shadow_11_">
		<path fill="#EFF9FA" d="M315.561,90.117c0,0-10.921-3.17-10.988,6.068c0,0,1.093,11.695,5.964,4.929
			C310.536,101.114,316.449,93.558,315.561,90.117z"/>
	</g>
	<g id="center_white_shadow_11_">
		<path fill="#F1F8F9" d="M350.544,95.783c0,0,4.66-10.577,8.216-12.586c0,0-8.272-12.95-26.886-8.601c0,0-5.296,7.876-3.73,15.182
			c0,0,1.633,9.927,9.548,12.304C337.691,102.082,347.286,100.368,350.544,95.783z"/>
	</g>
	<g id="right_white_shadow_11_">
		<path fill="#F1F8F9" d="M364.385,79.921c0,0,12.061-4.9,20.816,5.276c0,0,5.973,5.973,4.117,15.946c0,0-5.566,8.727-17.917,4.146
			c0,0-7.394-2.29-9.8-10.321C361.602,94.968,359.978,83.052,364.385,79.921z"/>
	</g>
	<rect id="rectangle_17_" x="311.531" y="109.232" fill="#E1ECF2" width="60.044" height="6.494"/>
</g>
<g id="Cloud_13_" opacity="0.2">
	<ellipse id="left_circle_13_" fill="#E1ECF2" cx="364.771" cy="111.939" rx="12.989" ry="13.063"/>
	<ellipse id="center_circle_22_" fill="#E1ECF2" cx="391.752" cy="103.977" rx="23.89" ry="21.027"/>
	<ellipse id="right_circle_8_" fill="#E1ECF2" cx="423.82" cy="106.536" rx="18.788" ry="18.526"/>
	<g id="left_white_shadow_13_">
		<path fill="#EFF9FA" d="M368.443,99.395c0,0-10.921-3.17-10.988,6.068c0,0,1.093,11.695,5.964,4.93
			C363.419,110.393,369.333,102.835,368.443,99.395z"/>
	</g>
	<g id="center_white_shadow_22_">
		<path fill="#F1F8F9" d="M403.427,105.062c0,0,4.66-10.577,8.216-12.587c0,0-8.272-12.949-26.886-8.601
			c0,0-5.296,7.876-3.73,15.182c0,0,1.633,9.927,9.548,12.304C390.574,111.359,400.169,109.646,403.427,105.062z"/>
	</g>
	<g id="right_white_shadow_13_">
		<path fill="#F1F8F9" d="M417.268,89.198c0,0,12.062-4.899,20.817,5.276c0,0,5.972,5.973,4.116,15.946
			c0,0-5.566,8.728-17.917,4.146c0,0-7.394-2.291-9.8-10.321C414.484,104.246,412.86,92.33,417.268,89.198z"/>
	</g>
	<rect id="rectangle_19_" x="364.414" y="118.51" fill="#E1ECF2" width="60.044" height="6.495"/>
</g>
<g id="Cloud_14_" opacity="0.2">
	<ellipse id="left_circle_25_" fill="#E1ECF2" cx="416.726" cy="84.106" rx="12.989" ry="13.064"/>
	<ellipse id="center_circle_24_" fill="#E1ECF2" cx="443.708" cy="76.144" rx="23.89" ry="21.028"/>
	<ellipse id="right_circle_9_" fill="#E1ECF2" cx="475.775" cy="78.703" rx="18.787" ry="18.526"/>
	<g id="left_white_shadow_26_">
		<path fill="#EFF9FA" d="M420.398,71.562c0,0-10.921-3.17-10.988,6.069c0,0,1.093,11.694,5.964,4.928
			C415.374,82.559,421.288,75.002,420.398,71.562z"/>
	</g>
	<g id="center_white_shadow_24_">
		<path fill="#F1F8F9" d="M455.383,77.229c0,0,4.659-10.578,8.216-12.587c0,0-8.273-12.95-26.887-8.601c0,0-5.296,7.876-3.73,15.182
			c0,0,1.633,9.927,9.548,12.304C442.529,83.526,452.124,81.812,455.383,77.229z"/>
	</g>
	<g id="right_white_shadow_26_">
		<path fill="#F1F8F9" d="M469.223,61.365c0,0,12.062-4.9,20.817,5.277c0,0,5.972,5.972,4.116,15.946c0,0-5.566,8.727-17.917,4.146
			c0,0-7.394-2.291-9.8-10.322C466.439,76.412,464.815,64.497,469.223,61.365z"/>
	</g>
	<rect id="rectangle_21_" x="416.369" y="90.677" fill="#E1ECF2" width="60.044" height="6.495"/>
</g>
</svg>
