<?xml version="1.0" encoding="utf-8"?>
<!-- Generator: Adobe Illustrator 16.0.4, SVG Export Plug-In . SVG Version: 6.00 Build 0)  -->
<!DOCTYPE svg PUBLIC "-//W3C//DTD SVG 1.1//EN" "http://www.w3.org/Graphics/SVG/1.1/DTD/svg11.dtd">
<svg version="1.1" id="Boat3" xmlns="http://www.w3.org/2000/svg" xmlns:xlink="http://www.w3.org/1999/xlink" x="0px" y="0px"
	 width="70px" height="150px" viewBox="0 0 70 150" enable-background="new 0 0 70 150" xml:space="preserve">
<g opacity="0.5">
	<g>
		<path fill="#FFFFFF" d="M14.682,53.247c0,0,4.114,8.373,8.139,10.621l15.201,0.066c8.25,0.036,16.634-2.156,18.631-4.87
			c0,0,0,0-1.551-0.44C55.102,58.624,37.127,61.238,14.682,53.247z"/>
	</g>
	<g>
		<path fill="#FFFFFF" d="M38.126,17.934c0,0-4.113,16.863-17.862,35.02c0,0,5.405,2.48,17.862,4.09
			C38.126,57.043,39.653,21.987,38.126,17.934z"/>
	</g>
	<g>
		<path fill="#FFFFFF" d="M43.297,27.688c0,0,6.992,26.138,10.812,29.11c0,0-15.453,0.986-15.982,0.245
			C38.126,57.043,40.758,29.229,43.297,27.688z"/>
	</g>
</g>
<g opacity="0.05">
	<g>
		<path fill="#FFFFFF" d="M14.682,74.687c0,0,4.114-8.373,8.139-10.621l15.201-0.066c8.25-0.036,16.634,2.156,18.631,4.87
			c0,0,0,0-1.551,0.44C55.102,69.31,37.127,66.695,14.682,74.687z"/>
	</g>
	<g>
		<path fill="#FFFFFF" d="M38.126,110c0,0-4.113-16.863-17.862-35.02c0,0,5.405-2.48,17.862-4.09
			C38.126,70.891,39.653,105.946,38.126,110z"/>
	</g>
	<g>
		<path fill="#FFFFFF" d="M43.297,100.246c0,0,6.992-26.138,10.812-29.11c0,0-15.453-0.986-15.982-0.245
			C38.126,70.891,40.758,98.704,43.297,100.246z"/>
	</g>
</g>
</svg>
