<?xml version="1.0" encoding="utf-8"?>
<!-- Generator: Adobe Illustrator 16.0.4, SVG Export Plug-In . SVG Version: 6.00 Build 0)  -->
<!DOCTYPE svg PUBLIC "-//W3C//DTD SVG 1.1//EN" "http://www.w3.org/Graphics/SVG/1.1/DTD/svg11.dtd">
<svg version="1.1" id="Boat2" xmlns="http://www.w3.org/2000/svg" xmlns:xlink="http://www.w3.org/1999/xlink" x="0px" y="0px"
	 width="70px" height="150px" viewBox="0 0 70 150" enable-background="new 0 0 70 150" xml:space="preserve">
<g opacity="0.5">
	<g>
		<path fill="#FFFFFF" d="M5.806,57.854c0,0,5.413,11.015,10.707,13.972l24.731,0.108c8.25,0.036,17.149-2.856,19.776-6.428
			c0,0,0,0-2.041-0.58C58.979,64.927,35.334,68.366,5.806,57.854z"/>
	</g>
	<g>
		<path fill="#FFFFFF" d="M36.648,11.397c0,0-5.412,22.185-23.499,46.07c0,0,7.111,3.263,23.499,5.38
			C36.648,62.848,38.658,16.73,36.648,11.397z"/>
	</g>
	<g>
		<path fill="#FFFFFF" d="M43.451,24.229c0,0,9.198,34.385,14.223,38.296c0,0-20.33,1.298-21.025,0.322
			C36.648,62.848,40.109,26.259,43.451,24.229z"/>
	</g>
</g>
<g opacity="0.05">
	<g>
		<path fill="#FFFFFF" d="M5.806,85.543c0,0,5.413-11.015,10.707-13.972l24.731-0.108c8.25-0.036,17.149,2.856,19.776,6.428
			c0,0,0,0-2.041,0.58C58.979,78.471,35.334,75.031,5.806,85.543z"/>
	</g>
	<g>
		<path fill="#FFFFFF" d="M36.648,132c0,0-5.412-22.185-23.499-46.07c0,0,7.111-3.263,23.499-5.38
			C36.648,80.55,38.658,126.667,36.648,132z"/>
	</g>
	<g>
		<path fill="#FFFFFF" d="M43.451,119.168c0,0,9.198-34.385,14.223-38.296c0,0-20.33-1.298-21.025-0.322
			C36.648,80.55,40.109,117.139,43.451,119.168z"/>
	</g>
</g>
</svg>
