<?xml version="1.0" encoding="utf-8"?>
<!-- Generator: Adobe Illustrator 16.0.4, SVG Export Plug-In . SVG Version: 6.00 Build 0)  -->
<!DOCTYPE svg PUBLIC "-//W3C//DTD SVG 1.1//EN" "http://www.w3.org/Graphics/SVG/1.1/DTD/svg11.dtd">
<svg version="1.1" id="Boat1" xmlns="http://www.w3.org/2000/svg" xmlns:xlink="http://www.w3.org/1999/xlink" x="0px" y="0px"
	 width="70px" height="150px" viewBox="0 0 70 150" enable-background="new 0 0 70 150" xml:space="preserve">
<g opacity="0.5">
	<g>
		<path fill="#FFFFFF" d="M3.812,58.484c0,0,6.32,12.86,12.501,16.312L47.7,74.934c8.25,0.036,17.51-3.346,20.577-7.515
			c0,0,0,0-2.383-0.677C65.895,66.742,38.287,70.758,3.812,58.484z"/>
	</g>
	<g>
		<path fill="#FFFFFF" d="M39.821,4.244c0,0-6.317,25.901-27.436,53.789c0,0,8.303,3.81,27.436,6.281
			C39.821,64.314,42.168,10.471,39.821,4.244z"/>
	</g>
	<g>
		<path fill="#FFFFFF" d="M47.764,19.226c0,0,10.74,40.146,16.606,44.712c0,0-23.736,1.516-24.549,0.377
			C39.821,64.314,43.863,21.595,47.764,19.226z"/>
	</g>
</g>
<g opacity="0.05">
	<g>
		<path fill="#FFFFFF" d="M3.812,90.76c0,0,6.32-12.86,12.501-16.312L47.7,74.31c8.25-0.036,17.51,3.345,20.577,7.515
			c0,0,0,0-2.383,0.677C65.895,82.502,38.287,78.486,3.812,90.76z"/>
	</g>
	<g>
		<path fill="#FFFFFF" d="M39.821,145c0,0-6.317-25.901-27.436-53.789c0,0,8.303-3.81,27.436-6.281
			C39.821,84.93,42.168,138.773,39.821,145z"/>
	</g>
	<g>
		<path fill="#FFFFFF" d="M47.764,130.019c0,0,10.74-40.146,16.606-44.712c0,0-23.736-1.516-24.549-0.377
			C39.821,84.93,43.863,127.649,47.764,130.019z"/>
	</g>
</g>
</svg>
