<?xml version="1.0" encoding="utf-8"?>
<!-- Generator: Adobe Illustrator 16.0.4, SVG Export Plug-In . SVG Version: 6.00 Build 0)  -->
<!DOCTYPE svg PUBLIC "-//W3C//DTD SVG 1.1//EN" "http://www.w3.org/Graphics/SVG/1.1/DTD/svg11.dtd">
<svg version="1.1" id="mountain_x5F_first_x5F_right"
	 xmlns="http://www.w3.org/2000/svg" xmlns:xlink="http://www.w3.org/1999/xlink" x="0px" y="0px" width="500px" height="600px"
	 viewBox="0 0 500 600" enable-background="new 0 0 500 600" xml:space="preserve">
<g>
	<polygon id="Mountain_1_" fill="#333333" points="354.889,10.27 233.313,35.836 145.715,250.285 19.335,600 315.336,599.999 	"/>
	<polygon id="Mountain" fill="#7F7F7F" points="354.889,10.27 417.998,24 499.35,459 500,600 310.889,599.595 	"/>
	<polygon id="Snow_mountain_4_" fill="#E1ECF2" points="343.334,169.831 302.669,211 256.769,205.291 253.716,214.835 
		200.87,201.068 196.801,223.128 155.202,227.137 167.07,197.076 233.5,19.348 354.889,10.315 	"/>
	<polygon fill="#F1F8F9" points="343.155,169.831 352.41,185.667 373.329,162.667 394.646,190.333 412.479,221 426,218 426,173 
		436.335,173.667 443.669,200 444.667,166.605 417.998,24 354.889,10.315 	"/>
	<polygon id="Mountain_2_" fill="#8C8C8C" points="265,599.225 197,598.493 197,566.885 265,289.304 	"/>
	<polygon id="Snow_mountain_3_" fill="#F1F8F9" points="237.495,402.833 242.439,403.238 248.548,427.587 255.129,409.082 
		258.945,413.848 265.32,406.842 265.32,289.674 	"/>
	<polygon id="Mountain_3_" fill="#333333" points="500,600 433.283,278.818 385.578,64.82 381.337,600 	"/>
	<polygon id="Mountain_5_" fill="#333333" points="321.004,600.001 265,289.304 262.889,599.202 	"/>
	<polygon id="Snow_mountain_2_" fill="#E1ECF2" points="262.691,407.333 271.418,427.587 277.082,417.215 279.906,427.587 
		295.826,460.319 265,289.304 	"/>
	<polygon id="Snow_mountain_1_" fill="#E1ECF2" points="339.75,233.625 349.645,252.928 360.856,249.166 365.952,260.452 
		373.088,265.469 386.853,260.062 385.826,64.822 367.484,96.772 	"/>
	<polygon id="Snow_mountain" fill="#F1F8F9" points="386.853,258.062 392.645,270.366 399.174,257.199 402.693,263.469 
		409.295,267.231 422.023,282.905 427.114,277.263 433.355,277.75 385.578,62.82 	"/>
	<polygon fill="#333333" points="394,507.337 363.779,536.286 349.218,554.074 322.31,545.581 313.434,506.558 302.493,497.291 
		313.375,600 394,600 	"/>
	<polygon fill="#333333" points="263.583,497.291 239.672,518.335 227.006,512.669 209.163,556 207.054,525.844 187.111,600 
		273.006,600 	"/>
	<polygon fill="#333333" points="478.721,504.441 484.534,477 500,489.001 500,600.809 	"/>
</g>
</svg>
