<?xml version="1.0" encoding="utf-8"?>
<!-- Generator: Adobe Illustrator 15.0.0, SVG Export Plug-In . SVG Version: 6.00 Build 0)  -->
<!DOCTYPE svg PUBLIC "-//W3C//DTD SVG 1.1//EN" "http://www.w3.org/Graphics/SVG/1.1/DTD/svg11.dtd">
<svg version="1.1" id="Layer_1" xmlns="http://www.w3.org/2000/svg" xmlns:xlink="http://www.w3.org/1999/xlink" x="0px" y="0px"
	 width="510.285px" height="94.388px" viewBox="0 0 510.285 94.388" enable-background="new 0 0 510.285 94.388"
	 xml:space="preserve">
<path fill="#FFFFFF" d="M338.812,14.76c6.912,0,11.231,4.968,11.231,11.88s-4.319,11.88-11.231,11.88s-11.232-4.968-11.232-11.88
	S331.9,14.76,338.812,14.76 M321.1,64.008h6.48v-25.2h0.145c2.303,3.528,6.983,5.76,11.879,5.76
	c10.513,0,17.353-7.703,17.353-17.928c0-10.08-6.769-17.928-17.353-17.928c-4.607,0-9.359,2.088-11.879,5.76h-0.145V9.576h-6.48
	V64.008z M311.309,9.576h-6.48v17.567c0,7.92-4.104,11.376-9.504,11.376c-4.104,0-7.776-2.376-7.776-8.784V9.576h-6.479v21.96
	c0,9.071,5.76,13.031,12.384,13.031c5.256,0,9.575-2.52,11.231-6.119h0.145v5.256h6.48V9.576z M236.645,26.64
	c0,9.937,7.992,17.928,18.145,17.928s18.145-7.991,18.145-17.928c0-9.936-7.992-17.928-18.145-17.928S236.645,16.704,236.645,26.64
	 M243.557,26.64c0-6.912,4.32-11.88,11.232-11.88s11.232,4.968,11.232,11.88s-4.32,11.88-11.232,11.88S243.557,33.552,243.557,26.64
	 M229.518,14.328c-2.447-4.032-7.127-5.616-11.664-5.616c-6.408,0-12.959,3.384-12.959,10.512c0,6.552,4.896,8.353,10.439,9.72
	c2.809,0.648,8.208,1.368,8.208,5.257c0,2.951-3.601,4.319-6.912,4.319c-3.743,0-6.192-1.943-8.28-4.031l-4.896,4.031
	c3.384,4.608,7.56,6.048,13.176,6.048c6.769,0,13.824-3.023,13.824-10.728c0-6.408-4.32-8.568-9.937-9.937
	c-2.879-0.647-8.711-1.224-8.711-5.327c0-2.448,2.664-3.816,5.688-3.816c3.24,0,5.472,1.512,6.984,3.384L229.518,14.328z
	 M151.441,23.832c0-4.536,4.176-9.937,10.584-9.937c6.552,0,9.72,4.248,9.863,9.937H151.441z M178.801,29.016v-2.304
	c0-8.784-4.607-18-16.632-18c-10.224,0-17.64,7.704-17.64,17.928c0,10.152,6.768,17.928,17.568,17.928
	c6.551,0,11.52-2.304,15.119-6.983l-4.896-3.744c-2.52,3.096-5.399,5.112-9.359,5.112c-5.977,0-11.52-3.96-11.52-9.937H178.801z
	 M106.514,43.704h6.479V26.136c0-7.92,4.104-11.376,9.504-11.376c4.104,0,7.776,2.376,7.776,8.784v20.16h6.479v-21.96
	c0-9.072-5.76-13.032-12.384-13.032c-5.256,0-9.576,2.52-11.232,6.12h-0.144V9.576h-6.479V43.704z M62.09,26.64
	c0,9.937,7.992,17.928,18.145,17.928s18.144-7.991,18.144-17.928c0-9.936-7.991-17.928-18.144-17.928S62.09,16.704,62.09,26.64
	 M69.002,26.64c0-6.912,4.32-11.88,11.232-11.88s11.231,4.968,11.231,11.88s-4.319,11.88-11.231,11.88S69.002,33.552,69.002,26.64
	 M55.395,9.576h-9.289V0h-6.479v9.576h-7.487v5.615h7.487v17.784c0,5.473,0.144,11.592,10.151,11.592
	c1.297,0,4.32-0.287,5.832-1.151v-5.904c-1.295,0.792-3.096,1.008-4.607,1.008c-4.896,0-4.896-4.031-4.896-7.848v-15.48h9.289V9.576
	z M28.323,14.328c-2.448-4.032-7.128-5.616-11.664-5.616c-6.408,0-12.96,3.384-12.96,10.512c0,6.552,4.896,8.353,10.439,9.72
	c2.809,0.648,8.209,1.368,8.209,5.257c0,2.951-3.601,4.319-6.912,4.319c-3.744,0-6.192-1.943-8.281-4.031L2.259,38.52
	c3.384,4.608,7.56,6.048,13.177,6.048c6.768,0,13.823-3.023,13.823-10.728c0-6.408-4.319-8.568-9.936-9.937
	c-2.88-0.647-8.712-1.224-8.712-5.327c0-2.448,2.664-3.816,5.688-3.816c3.24,0,5.473,1.512,6.984,3.384L28.323,14.328z"/>
<path fill="#FFFFFF" d="M305.505,84.344c0-1.134,1.044-2.484,2.646-2.484c1.639,0,2.431,1.062,2.467,2.484H305.505z M312.345,85.64
	v-0.576c0-2.195-1.151-4.5-4.157-4.5c-2.557,0-4.41,1.926-4.41,4.482c0,2.538,1.691,4.481,4.392,4.481
	c1.638,0,2.88-0.575,3.78-1.746l-1.225-0.936c-0.63,0.774-1.35,1.278-2.34,1.278c-1.494,0-2.88-0.99-2.88-2.484H312.345z
	 M300.087,89.312h1.62V75.704h-1.62V89.312z M293.391,82.076c1.729,0,2.809,1.241,2.809,2.97c0,1.728-1.08,2.97-2.809,2.97
	c-1.728,0-2.808-1.242-2.808-2.97C290.583,83.317,291.663,82.076,293.391,82.076 M288.963,94.388h1.62v-6.3h0.036
	c0.576,0.882,1.746,1.439,2.97,1.439c2.628,0,4.338-1.926,4.338-4.481c0-2.521-1.692-4.482-4.338-4.482
	c-1.151,0-2.34,0.522-2.97,1.44h-0.036v-1.225h-1.62V94.388z M277.857,85.046c0,2.483,1.998,4.481,4.535,4.481
	c2.539,0,4.537-1.998,4.537-4.481c0-2.484-1.998-4.482-4.537-4.482C279.855,80.563,277.857,82.562,277.857,85.046 M279.585,85.046
	c0-1.729,1.08-2.97,2.808-2.97c1.729,0,2.809,1.241,2.809,2.97c0,1.728-1.08,2.97-2.809,2.97
	C280.665,88.016,279.585,86.773,279.585,85.046 M269.486,84.344c0-1.134,1.045-2.484,2.646-2.484c1.639,0,2.43,1.062,2.467,2.484
	H269.486z M276.327,85.64v-0.576c0-2.195-1.152-4.5-4.158-4.5c-2.556,0-4.41,1.926-4.41,4.482c0,2.538,1.692,4.481,4.392,4.481
	c1.639,0,2.881-0.575,3.781-1.746l-1.225-0.936c-0.63,0.774-1.35,1.278-2.34,1.278c-1.494,0-2.881-0.99-2.881-2.484H276.327z
	 M261.693,82.076c1.728,0,2.808,1.241,2.808,2.97c0,1.728-1.08,2.97-2.808,2.97c-1.729,0-2.809-1.242-2.809-2.97
	C258.885,83.317,259.965,82.076,261.693,82.076 M257.266,94.388h1.619v-6.3h0.036c0.576,0.882,1.746,1.439,2.97,1.439
	c2.629,0,4.338-1.926,4.338-4.481c0-2.521-1.691-4.482-4.338-4.482c-1.152,0-2.34,0.522-2.97,1.44h-0.036v-1.225h-1.619V94.388z
	 M246.898,89.312h1.619v-7.128h1.944v-1.404h-1.926v-1.962c0-1.188,0.198-1.926,1.386-1.926c0.324,0,0.612,0.036,0.918,0.162
	l0.18-1.44c-0.449-0.107-0.846-0.126-1.205-0.126c-2.125,0-2.916,1.116-2.916,3.385v1.907h-1.836v1.404h1.836V89.312z
	 M235.162,85.046c0,2.483,1.998,4.481,4.536,4.481s4.536-1.998,4.536-4.481c0-2.484-1.998-4.482-4.536-4.482
	S235.162,82.562,235.162,85.046 M236.891,85.046c0-1.729,1.08-2.97,2.808-2.97s2.808,1.241,2.808,2.97c0,1.728-1.08,2.97-2.808,2.97
	S236.891,86.773,236.891,85.046 M228.376,81.968c-0.612-1.008-1.782-1.404-2.916-1.404c-1.603,0-3.239,0.847-3.239,2.628
	c0,1.639,1.223,2.088,2.609,2.431c0.702,0.162,2.052,0.342,2.052,1.313c0,0.738-0.899,1.08-1.728,1.08
	c-0.937,0-1.549-0.486-2.07-1.008l-1.225,1.008c0.847,1.152,1.891,1.512,3.295,1.512c1.691,0,3.455-0.756,3.455-2.682
	c0-1.602-1.08-2.142-2.483-2.484c-0.72-0.162-2.178-0.306-2.178-1.332c0-0.611,0.665-0.953,1.422-0.953
	c0.81,0,1.368,0.378,1.746,0.846L228.376,81.968z M212.572,89.312h1.619V84.92c0-1.98,1.026-2.844,2.377-2.844
	c1.025,0,1.943,0.594,1.943,2.195v5.04h1.62v-5.49c0-2.268-1.44-3.258-3.096-3.258c-1.313,0-2.394,0.63-2.808,1.53h-0.037v-1.314
	h-1.619V89.312z M201.466,85.046c0,2.483,1.998,4.481,4.536,4.481s4.536-1.998,4.536-4.481c0-2.484-1.998-4.482-4.536-4.482
	S201.466,82.562,201.466,85.046 M203.193,85.046c0-1.729,1.08-2.97,2.809-2.97s2.809,1.241,2.809,2.97c0,1.728-1.08,2.97-2.809,2.97
	S203.193,86.773,203.193,85.046 M197.309,77.72c0,0.648,0.539,1.188,1.188,1.188s1.188-0.539,1.188-1.188s-0.539-1.188-1.188-1.188
	S197.309,77.071,197.309,77.72 M197.686,89.312h1.621v-8.532h-1.621V89.312z M193.366,89.312h1.62V75.704h-1.62V89.312z
	 M189.047,89.312h1.62V75.704h-1.62V89.312z M184.35,77.72c0,0.648,0.539,1.188,1.188,1.188s1.188-0.539,1.188-1.188
	s-0.539-1.188-1.188-1.188S184.35,77.071,184.35,77.72 M184.727,89.312h1.621v-8.532h-1.621V89.312z M169.266,89.312h1.619v-4.428
	c0-1.926,1.045-2.808,2.215-2.808c1.565,0,1.799,1.151,1.799,2.771v4.464h1.621v-4.662c0-1.512,0.611-2.573,2.178-2.573
	s1.836,1.188,1.836,2.483v4.752h1.619v-4.968c0-1.908-0.611-3.78-3.239-3.78c-1.026,0-2.142,0.54-2.7,1.584
	c-0.54-1.044-1.404-1.584-2.664-1.584c-1.529,0-2.574,1.044-2.736,1.548h-0.035v-1.332h-1.512V89.312z M161.885,87.26h-1.746
	l-1.242,4.428h1.477L161.885,87.26z M157.061,81.968c-0.611-1.008-1.781-1.404-2.916-1.404c-1.602,0-3.24,0.847-3.24,2.628
	c0,1.639,1.225,2.088,2.611,2.431c0.701,0.162,2.051,0.342,2.051,1.313c0,0.738-0.899,1.08-1.728,1.08
	c-0.937,0-1.548-0.486-2.069-1.008l-1.225,1.008c0.846,1.152,1.891,1.512,3.294,1.512c1.692,0,3.456-0.756,3.456-2.682
	c0-1.602-1.08-2.142-2.484-2.484c-0.72-0.162-2.178-0.306-2.178-1.332c0-0.611,0.666-0.953,1.422-0.953
	c0.811,0,1.368,0.378,1.746,0.846L157.061,81.968z M145.9,89.312h1.621v-7.128h1.943v-1.404h-1.926v-1.962
	c0-1.188,0.197-1.926,1.386-1.926c0.324,0,0.612,0.036,0.918,0.162l0.181-1.44c-0.45-0.107-0.847-0.126-1.207-0.126
	c-2.123,0-2.916,1.116-2.916,3.385v1.907h-1.836v1.404h1.836V89.312z M136.486,84.344c0-1.134,1.045-2.484,2.646-2.484
	c1.639,0,2.43,1.062,2.467,2.484H136.486z M143.327,85.64v-0.576c0-2.195-1.152-4.5-4.158-4.5c-2.556,0-4.41,1.926-4.41,4.482
	c0,2.538,1.692,4.481,4.392,4.481c1.639,0,2.881-0.575,3.781-1.746l-1.225-0.936c-0.63,0.774-1.35,1.278-2.34,1.278
	c-1.494,0-2.881-0.99-2.881-2.484H143.327z M125.255,89.312h1.62V84.92c0-1.98,1.025-2.844,2.376-2.844
	c1.026,0,1.944,0.594,1.944,2.195v5.04h1.619v-5.49c0-2.268-1.439-3.258-3.096-3.258c-1.314,0-2.394,0.63-2.808,1.53h-0.036v-6.39
	h-1.62V89.312z M123.904,81.932c-0.846-0.918-2.033-1.35-3.275-1.35c-2.664,0-4.464,1.872-4.464,4.5s1.836,4.445,4.464,4.445
	c1.242,0,2.395-0.378,3.24-1.313l-1.152-1.152c-0.54,0.63-1.17,0.954-2.07,0.954c-1.674,0-2.754-1.296-2.754-2.897
	c0-1.603,0.9-3.024,2.664-3.024c0.9,0,1.53,0.324,2.125,0.954L123.904,81.932z M106.212,89.312h1.62v-7.128h1.943v-1.404h-1.926
	v-1.962c0-1.188,0.198-1.926,1.387-1.926c0.324,0,0.611,0.036,0.918,0.162l0.18-1.44c-0.45-0.107-0.846-0.126-1.206-0.126
	c-2.124,0-2.916,1.116-2.916,3.385v1.907h-1.836v1.404h1.836V89.312z M94.477,85.046c0,2.483,1.998,4.481,4.535,4.481
	c2.538,0,4.536-1.998,4.536-4.481c0-2.484-1.998-4.482-4.536-4.482C96.475,80.563,94.477,82.562,94.477,85.046 M96.204,85.046
	c0-1.729,1.08-2.97,2.808-2.97c1.729,0,2.809,1.241,2.809,2.97c0,1.728-1.08,2.97-2.809,2.97
	C97.284,88.016,96.204,86.773,96.204,85.046 M87.689,81.968c-0.611-1.008-1.781-1.404-2.916-1.404c-1.602,0-3.239,0.847-3.239,2.628
	c0,1.639,1.224,2.088,2.61,2.431c0.701,0.162,2.051,0.342,2.051,1.313c0,0.738-0.899,1.08-1.728,1.08
	c-0.936,0-1.548-0.486-2.069-1.008l-1.225,1.008c0.846,1.152,1.891,1.512,3.294,1.512c1.692,0,3.456-0.756,3.456-2.682
	c0-1.602-1.08-2.142-2.484-2.484c-0.719-0.162-2.178-0.306-2.178-1.332c0-0.611,0.666-0.953,1.422-0.953
	c0.811,0,1.368,0.378,1.746,0.846L87.689,81.968z M71.887,89.312h1.619V84.92c0-1.98,1.026-2.844,2.376-2.844
	c1.026,0,1.944,0.594,1.944,2.195v5.04h1.619v-5.49c0-2.268-1.439-3.258-3.096-3.258c-1.313,0-2.394,0.63-2.808,1.53h-0.036v-1.314
	h-1.619V89.312z M60.779,85.046c0,2.483,1.998,4.481,4.537,4.481c2.537,0,4.535-1.998,4.535-4.481c0-2.484-1.998-4.482-4.535-4.482
	C62.777,80.563,60.779,82.562,60.779,85.046 M62.508,85.046c0-1.729,1.08-2.97,2.809-2.97c1.728,0,2.808,1.241,2.808,2.97
	c0,1.728-1.08,2.97-2.808,2.97C63.588,88.016,62.508,86.773,62.508,85.046 M56.622,77.72c0,0.648,0.54,1.188,1.188,1.188
	c0.647,0,1.188-0.539,1.188-1.188s-0.54-1.188-1.188-1.188C57.162,76.531,56.622,77.071,56.622,77.72 M57,89.312h1.62v-8.532H57
	V89.312z M52.68,89.312h1.62V75.704h-1.62V89.312z M48.361,89.312h1.619V75.704h-1.619V89.312z M43.663,77.72
	c0,0.648,0.54,1.188,1.188,1.188c0.647,0,1.188-0.539,1.188-1.188s-0.54-1.188-1.188-1.188
	C44.203,76.531,43.663,77.071,43.663,77.72 M44.041,89.312h1.62v-8.532h-1.62V89.312z M28.579,89.312h1.62v-4.428
	c0-1.926,1.044-2.808,2.214-2.808c1.565,0,1.8,1.151,1.8,2.771v4.464h1.62v-4.662c0-1.512,0.612-2.573,2.179-2.573
	c1.565,0,1.836,1.188,1.836,2.483v4.752h1.619v-4.968c0-1.908-0.611-3.78-3.24-3.78c-1.025,0-2.142,0.54-2.699,1.584
	c-0.541-1.044-1.404-1.584-2.664-1.584c-1.53,0-2.574,1.044-2.736,1.548h-0.036v-1.332h-1.512V89.312z"/>
<path fill="#FFFFFF" d="M363.676,55.061c0,0,62.729-6.707,100.971-5.111c38.24,1.596,40.142,4.268,40.142,4.268
	s17.711,5.074-10.452,10.197c-28.163,5.122-78.922,7.174-129.138,3.211c0,0,3.86-0.595-30.519-2.787c0,0-25.783-1.644-61.77-0.464
	c-35.984,1.178-116.555,0.646-130.266,1.824C128.934,67.376,9.254,65.85,9.254,65.85s-10.012-0.953-9.208-2.638
	c0.804-1.686,7.722-3.532,11.938-4.026s53.594-1.24,69.85-0.625c16.255,0.615,221.102-0.689,221.102-0.689
	S360.364,56.665,363.676,55.061"/>
<rect fill="none" width="510.285" height="94.388"/>
</svg>
