<?xml version="1.0" encoding="utf-8"?>
<!-- Generator: Adobe Illustrator 16.0.4, SVG Export Plug-In . SVG Version: 6.00 Build 0)  -->
<!DOCTYPE svg PUBLIC "-//W3C//DTD SVG 1.1//EN" "http://www.w3.org/Graphics/SVG/1.1/DTD/svg11.dtd">
<svg version="1.1" id="Flag" xmlns="http://www.w3.org/2000/svg" xmlns:xlink="http://www.w3.org/1999/xlink" x="0px" y="0px"
	 width="150px" height="70px" viewBox="0 0 150 70" enable-background="new 0 0 150 70" xml:space="preserve">
<g>
	<line fill="none" stroke="#333333" stroke-width="3" stroke-miterlimit="10" x1="105.337" y1="68.195" x2="103.598" y2="2.671"/>
	<g>
		<path fill="#25AAE1" d="M102.226,4.706c0,0-5.606-7.22-31.174,2.001c0,0-19.052,4.509-28.052,0v41.418
			c0,0,6.746,6.456,30.893,1.098c0,0,14.477-6.847,29.628-0.367L102.226,4.706z"/>
	</g>
	<path opacity="0.5" fill="#333333" d="M100.669,3.59l0.082,44.344c0,0,0.952,0.395,2.847,0.879L102.369,5.47
		C102.369,5.47,102.687,4.334,100.669,3.59z"/>
	<text transform="matrix(1 0 0 1 57.7744 32.4253)"><tspan x="0" y="0" fill="#F1F8F9" font-family="'Montserrat-ExtraBold'" font-size="11.3633">MVP</tspan><tspan x="26.511" y="0" fill="#333333" font-family="'Montserrat-ExtraBold'" font-size="11.3633">\</tspan></text>
</g>
</svg>
