<?xml version="1.0" encoding="utf-8"?>
<!-- Generator: Adobe Illustrator 16.0.4, SVG Export Plug-In . SVG Version: 6.00 Build 0)  -->
<!DOCTYPE svg PUBLIC "-//W3C//DTD SVG 1.1//EN" "http://www.w3.org/Graphics/SVG/1.1/DTD/svg11.dtd">
<svg version="1.1" id="Calque_1" xmlns="http://www.w3.org/2000/svg" xmlns:xlink="http://www.w3.org/1999/xlink" x="0px" y="0px"
	 width="50px" height="100px" viewBox="0 0 50 100" enable-background="new 0 0 50 100" xml:space="preserve">
<g>
	<g>
		<circle fill="#2C2522" cx="24.598" cy="23.592" r="4.973"/>
		<path fill="#2C2522" d="M41.23,17.572l-8.234,10.77l-3.124,1.789l-10.619-0.004l-3.271-1.875L7.815,17.572
			c-1.962-2.564-5.35,0.027-3.39,2.591l9.82,12.841l2.717,4.453v0.132h0.08l0.501,0.823l-0.007,43.043
			c0,1.674,1.36,3.033,3.033,3.033c1.678,0,3.035-1.359,3.035-3.033l0.002-25.443h1.352L24.95,81.455
			c0,1.674,1.357,3.033,3.033,3.033c1.674,0,3.032-1.359,3.032-3.033l0.013-42.267l0.976-1.6l2.796-4.584l0.354-0.464l9.465-12.377
			C46.58,17.599,43.191,15.008,41.23,17.572z"/>
	</g>
</g>
</svg>
