<?xml version="1.0" encoding="utf-8"?>
<!-- Generator: Adobe Illustrator 16.0.4, SVG Export Plug-In . SVG Version: 6.00 Build 0)  -->
<!DOCTYPE svg PUBLIC "-//W3C//DTD SVG 1.1//EN" "http://www.w3.org/Graphics/SVG/1.1/DTD/svg11.dtd">
<svg version="1.1" id="cablecar" xmlns="http://www.w3.org/2000/svg" xmlns:xlink="http://www.w3.org/1999/xlink" x="0px" y="0px"
	 width="200px" height="100px" viewBox="0 0 200 100" enable-background="new 0 0 200 100" xml:space="preserve">
<path fill="#333333" d="M86.508,26.272l-1.473,6.125l-3.111,0.357l0.262,2.325L63.82,37.182c0,0-3.068,0.351-2.499,3.428
	l-3.982,0.455l0.175,1.552l1.528-0.176l3.42,30.235l-1.527,0.175l0.351,3.101l1.528-0.175l1.754,15.505l-2.291,0.263l0.263,2.326
	l2.665-0.306c0,0,0.285,5.464,4.209,5.801l34.298-3.928l-7.98-70.531L86.508,26.272z"/>
<path fill="#333333" d="M104.688,24.189l3.259,5.583l2.993-0.342l0.264,2.325l18.397-2.106c0,0,3.056-0.351,3.188,2.777l3.964-0.455
	l0.176,1.55l-2.291,0.263l3.42,30.234l2.292-0.263l0.35,3.101l-2.291,0.263l1.754,15.506l2.291-0.263l0.264,2.325l-1.891,0.216
	c0,0,0.942,5.39-2.789,6.603l-35.09,4.018l-7.979-70.529L104.688,24.189z"/>
<polygon fill="#F1F8F9" points="64.42,45.93 76.485,44.549 79.031,67.059 66.966,68.441 "/>
<path fill="#F1F8F9" d="M93.554,63.588c0,0,0.11-2.176,0.517-2.977c0.056-0.115,0.287-0.4,0.287-0.4
	c0.513-0.684,1.316-1.201,2.231-1.373c1.029-0.17,2.06,0.115,2.864,0.689l2.804,3.723l2.163,0.901l12.438-1.424l-2.549-22.51
	l-32.932,3.771l2.546,22.51l9.679-1.107L93.554,63.588z M94.126,50.587c1.487-2.177,4.463-2.689,6.639-1.146
	c2.176,1.487,2.693,4.467,1.146,6.643c-1.487,2.121-4.462,2.633-6.639,1.146C93.096,55.742,92.578,52.764,94.126,50.587z"/>
<polygon fill="#F1F8F9" points="118.549,39.732 130.939,38.313 133.919,60.773 121.747,62.168 "/>
<polygon fill="#25AAE1" points="64.514,91.285 142.453,82.362 142.717,84.688 62.539,93.869 62.276,91.543 64.596,91.276 "/>
<path fill="none" d="M65.863,96.63l74.997-8.589c0,0-1.389,3.301-2.802,3.463l-68.583,7.853
	C69.474,99.356,67.104,98.842,65.863,96.63z"/>
<polygon fill="#2C2522" points="84.692,32.436 108.17,29.746 105.158,23.81 86.274,25.972 "/>
<polygon fill="#25AAE1" points="62.716,72.498 141.103,63.596 141.457,66.732 61.283,75.933 60.924,72.766 62.798,72.486 "/>
<polygon fill="#25AAE1" points="58.813,40.896 136.753,31.971 137.103,35.072 56.927,44.253 56.576,41.152 58.895,40.887 "/>
<image overflow="visible" opacity="0.7" width="1461" height="646" id="Cableway" xlink:href="8A17BC4764D2B9B.png"  transform="matrix(0.0158 -0.0018 0.0018 0.0161 90.1934 75.2227)">
</image>
<polygon fill="#2C2522" points="93.3,10.247 96.354,9.897 98.283,26.952 95.229,27.302 "/>
<ellipse transform="matrix(-0.9935 0.1139 -0.1139 -0.9935 171.0368 19.0421)" fill="#333333" cx="84.974" cy="14.407" rx="1.665" ry="1.691"/>
<ellipse transform="matrix(-0.9935 0.1138 -0.1138 -0.9935 179.8454 15.9528)" fill="#333333" cx="89.468" cy="13.108" rx="1.665" ry="1.69"/>
<ellipse transform="matrix(-0.9935 0.1139 -0.1139 -0.9935 162.2264 22.1437)" fill="#333333" cx="80.48" cy="15.707" rx="1.665" ry="1.691"/>
<ellipse transform="matrix(-0.9935 0.1137 -0.1137 -0.9935 207.7883 6.3897)" fill="#333333" cx="103.712" cy="9.121" rx="1.666" ry="1.69"/>
<ellipse transform="matrix(-0.9935 0.1137 -0.1137 -0.9935 216.5995 3.2856)" fill="#333333" cx="108.206" cy="7.82" rx="1.666" ry="1.69"/>
<ellipse transform="matrix(-0.9935 0.1138 -0.1138 -0.9935 198.9793 9.4825)" fill="#333333" cx="99.219" cy="10.42" rx="1.665" ry="1.69"/>
<path fill="#2C2522" d="M74.849,17.14c0,0-1.329-5.996,5.003-7.799l26.757-7.348c0,0,6.271-1.664,7.021,4.437l-21.427,5.917
	L74.849,17.14z"/>
</svg>
