<?xml version="1.0" encoding="utf-8"?>
<!-- Generator: Adobe Illustrator 18.0.0, SVG Export Plug-In . SVG Version: 6.00 Build 0)  -->
<!DOCTYPE svg PUBLIC "-//W3C//DTD SVG 1.1//EN" "http://www.w3.org/Graphics/SVG/1.1/DTD/svg11.dtd">
<svg version="1.1" id="Layer_1" xmlns="http://www.w3.org/2000/svg" xmlns:xlink="http://www.w3.org/1999/xlink" x="0px" y="0px"
	 viewBox="0 0 1200 800" enable-background="new 0 0 1200 800" xml:space="preserve">
<g opacity="0.89">
	<rect x="-493" y="26.8" fill="#F4F4F4" width="1980" height="670.2"/>
	<g opacity="0.1">
		<g>
			<g opacity="0.5">
				<polyline fill="#222222" points="-493,696.9 932.3,696.9 -493,352.5 				"/>
				<polyline fill="#26A9E1" points="-493,26.8 1487,352.5 -493,696.9 				"/>
				<polyline fill="#747474" points="-493,26.8 932.3,26.8 -493,371.2 				"/>
			</g>
			<g>
				<polyline opacity="0.5" fill="#222222" points="1487,696.9 61.7,696.9 1487,352.5 				"/>
				<polyline opacity="0.5" fill="#26A9E1" points="1487,26.8 -493,352.5 1487,696.9 				"/>
				<polyline opacity="0.5" fill="#747474" points="1487,26.8 61.7,26.8 1487,371.2 				"/>
			</g>
			<g opacity="0.65">
				<polyline opacity="0.5" fill="#222222" points="1487,696.9 997.1,696.9 1487,352.5 				"/>
				<polyline opacity="0.5" fill="#26A9E1" points="1487,26.8 806.4,352.5 1487,696.9 				"/>
				<polyline opacity="0.5" fill="#747474" points="1487,26.8 997.1,26.8 1487,371.2 				"/>
			</g>
			<g opacity="0.65">
				<polyline opacity="0.5" fill="#222222" points="-493,26.8 -3.1,26.8 -493,371.2 				"/>
				<polyline opacity="0.5" fill="#26A9E1" points="-493,696.9 187.6,371.2 -493,26.8 				"/>
				<polyline opacity="0.5" fill="#747474" points="-493,696.9 -3.1,696.9 -493,352.5 				"/>
			</g>
		</g>
		<polygon opacity="0.25" fill="#26A9E1" points="497,591.7 657.1,553 497,524.7 335.8,552.8 		"/>
		<polygon opacity="0.25" fill="#26A9E1" points="497,189.6 642.1,167 497,132 356.3,166 		"/>
	</g>
	<g opacity="0.25">
		<g>
			<g opacity="0.5">
				<polyline fill="#26A9E1" points="-493,696.9 932.3,696.9 -493,352.5 				"/>
				<polyline fill="#26A9E1" points="-493,26.8 1487,352.5 -493,696.9 				"/>
				<polyline fill="#26A9E1" points="-493,26.8 932.3,26.8 -493,371.2 				"/>
			</g>
			<g>
				<polyline opacity="0.5" fill="#26A9E1" points="1487,696.9 61.7,696.9 1487,352.5 				"/>
				<polyline opacity="0.5" fill="#26A9E1" points="1487,26.8 -493,352.5 1487,696.9 				"/>
				<polyline opacity="0.5" fill="#26A9E1" points="1487,26.8 61.7,26.8 1487,371.2 				"/>
			</g>
			<g opacity="0.65">
				<polyline opacity="0.5" fill="#26A9E1" points="1487,696.9 997.1,696.9 1487,352.5 				"/>
				<polyline opacity="0.5" fill="#26A9E1" points="1487,26.8 806.4,352.5 1487,696.9 				"/>
				<polyline opacity="0.5" fill="#26A9E1" points="1487,26.8 997.1,26.8 1487,371.2 				"/>
			</g>
			<g opacity="0.65">
				<polyline opacity="0.5" fill="#26A9E1" points="-493,26.8 -3.1,26.8 -493,371.2 				"/>
				<polyline opacity="0.5" fill="#26A9E1" points="-493,696.9 187.6,371.2 -493,26.8 				"/>
				<polyline opacity="0.5" fill="#26A9E1" points="-493,696.9 -3.1,696.9 -493,352.5 				"/>
			</g>
		</g>
		<polygon opacity="0.25" fill="#26A9E1" points="497,591.7 657.1,553 497,524.7 335.8,552.8 		"/>
		<polygon opacity="0.25" fill="#26A9E1" points="497,189.6 642.1,167 497,132 356.3,166 		"/>
	</g>
</g>
<g>
	<g>
		<g>
			<g>
				<g>
					<g>
						<path fill="#FFFFFF" d="M463.4,453.4v-10.8"/>
					</g>
				</g>
			</g>
		</g>
	</g>
	<g>
		<g>
			<g>
				<path fill="#131313" d="M899,452.1c-0.2,0.2-0.3,0.5-0.3,0.9"/>
			</g>
		</g>
	</g>
</g>
</svg>
