<?xml version="1.0" encoding="utf-8"?>
<!-- Generator: Adobe Illustrator 16.0.4, SVG Export Plug-In . SVG Version: 6.00 Build 0)  -->
<!DOCTYPE svg PUBLIC "-//W3C//DTD SVG 1.1//EN" "http://www.w3.org/Graphics/SVG/1.1/DTD/svg11.dtd">
<svg version="1.1" id="reflect_x5F_main_x5F_mountain" opacity="0.2"
	 xmlns="http://www.w3.org/2000/svg" xmlns:xlink="http://www.w3.org/1999/xlink" x="0px" y="0px" width="1280px" height="380px"
	 viewBox="0 0 1280 380" enable-background="new 0 0 1280 380" xml:space="preserve">
<polygon fill="none" points="774.484,-13 953.319,158.999 953.476,161.607 953.52,163.023 974.812,144.811 974.172,145.427 
	999.303,123.026 999.532,123.285 999.503,123.355 1051.738,162.631 1104.164,202.087 1104.199,202.074 1104.363,202.198 
	1139.551,179.098 1138.489,179.51 1153.246,169.798 1153.466,169.984 1153.446,169.998 1253.507,259.198 1269,242.193 1269,553 
	-11,553 -11,305.674 -3.567,307.498 34.386,261.298 35.792,261.321 113.421,157.798 179,207.45 179,207.398 207.042,226.898 
	356.861,96.198 387.588,126.899 525.275,-13 -11,-13 -11,-247 1269,-247 1269,-13 "/>
<polygon fill="#E8E0BC" points="1104.164,202.098 1051.738,162.652 1104.199,202.074 "/>
<path fill="#3C5F83" d="M525.275-2H0v150.45l13.695,35.748L0,198.79v60.249l3.433-6.341l2.016,29.8l14.553-24.9l-0.171,18.5
	l17.381-14.776l78.606-103.523l21.396-26.899l23.893,36.6l7.098-3l20.851,32.057l14.938,14.844l0.1-15.5l8.797,13.5l8.596-11
	l0.101,13l12.095-6.4l-24.89,21.9l148.946-130.7l11.996,1.499l10.549,19.895l-0.053-0.196l6.897,6.196l4.298-6.206l0.8,7.488
	l9.296-5.926L388.025,132.1L377.929,120h0.001l-20.193-23.9l30.289,36.3L525.275-2z M245.578,154.798l-12.995-10.7l-23.692-68.6
	l7.197-8.4L245.578,154.798z M391.024,99.298l-3.199,11.101l-33.587-53.101L391.024,99.298z"/>
<path fill="#3C5F83" d="M1271.203,234.698l8.797-7.046V125.311l-11.396-32.312L1280,85.302V-2H768.437l184.883,166.499l0.156-0.142
	L823.167,42.798l58.278-40l39.186,81.101l-23.491-0.301l36.289,52.009l-0.003-0.009l14.096,12.301l4.298-17.7l3.399,17.399
	l14.494-12l-10.195,16.4l14.654-6.228l25.131-22.572l0.229,0.173l14.266-13.473l5.598,9.1l32.787-35.1l36.311,82.32l14.972,13.279
	l3.599-12.2l3.998,16.8l14.195-12.6l-4.798,15l18.03-6.988l14.757-9.712l0.22,0.187l64.458-45.387l25.689,84.167l13.596,22.634
	l11.595-22.801L1271.203,234.698z M1143.649,129.098l-9.196,9l-16.895-45.1L1143.649,129.098z"/>
<polygon fill="#E8E0BC" points="1280,236.355 1280,237.213 1278.701,237.998 "/>
<polygon fill="#5D7891" points="881.445,2.798 920.631,83.898 897.14,83.598 933.429,135.606 937.425,146.498 928.129,140.698 
	953.52,164.398 953.476,164.357 819.531,44.014 "/>
<polygon fill="#5D7891" points="1117.559,92.998 1143.649,129.098 1134.453,138.098 "/>
<polygon fill="#5D7891" points="1019.396,118.998 1052.183,83.898 1088.493,166.219 1088.471,166.198 1090.669,180.998 
	1078.373,171.898 1083.772,180.798 1065.979,173.298 1104.363,202.198 1104.199,202.074 1051.738,162.652 999.503,123.398 
	999.532,123.371 1013.798,109.898 "/>
<polygon fill="#5D7891" points="1243.526,208.765 1243,208.598 1243,232.198 1229.178,216.898 1232.803,231.598 1211.735,219.098 
	1259.35,259.198 1153.42,169.998 1153.453,169.984 1217.947,124.598 "/>
<polygon fill="#E1ECF2" points="1211.625,219.098 1233.039,231.598 1229.333,216.898 1243.49,232.198 1243.49,208.598 
	1259.475,259.198 "/>
<polygon fill="#F1F8F9" points="1243.514,208.598 1243.613,208.765 1257.209,231.398 1268.804,208.598 1271.203,234.698 
	1280,227.652 1280,236.355 1278.701,237.998 1280,237.213 1280,242.193 1259.008,259.198 "/>
<polygon fill="#E1ECF2" points="1065.979,173.298 1083.772,180.798 1078.373,171.898 1090.669,180.998 1088.471,166.198 
	1104.363,202.198 "/>
<polygon fill="#F1F8F9" points="933.419,135.609 947.521,147.902 951.81,130.199 955.219,147.597 969.706,135.589 959.52,151.995 
	974.17,145.759 974.811,145.486 953.529,164.398 "/>
<polygon fill="#F1F8F9" points="1088.471,166.198 1088.493,166.219 1103.465,179.498 1107.063,167.298 1111.062,184.098 
	1125.257,171.498 1120.459,186.498 1138.489,179.51 1139.551,179.098 1104.363,202.198 "/>
<polygon fill="#E1ECF2" points="927.291,140.56 937.166,146.664 933.08,135.47 933.078,135.46 954.115,165.251 "/>
<polygon fill="#5D7891" points="380.282,117.594 381.728,122.898 377.93,120.199 357.737,96.198 369.732,97.698 "/>
<polygon fill="#5D7891" points="1280,85.302 1280,125.311 1268.604,92.998 "/>
<polygon fill="#5D7891" points="161.108,167.498 168.205,164.498 189.055,196.555 188.898,196.398 191.896,208.298 183.9,202.998 
	190.798,210.798 182.626,207.45 115.825,157.798 137.217,130.898 "/>
<polygon fill="#5D7891" points="208.891,75.498 216.088,67.098 245.578,154.798 232.583,144.098 "/>
<polygon fill="#5D7891" points="0,198.79 0,148.45 13.695,184.198 "/>
<polygon fill="#5D7891" points="354.238,57.298 391.024,99.298 387.825,110.398 "/>
<polygon fill="#F1F8F9" points="387.179,123.685 391.511,117.398 392.318,125.004 401.687,119.021 388.086,132.406 380.229,117.398 
	"/>
<polygon fill="#E1ECF2" points="380.257,117.538 380.205,117.337 388.159,132.575 377.703,119.947 377.705,119.947 381.677,122.901 
	"/>
<polygon fill="#F1F8F9" points="189.055,196.555 203.992,211.398 204.092,195.898 212.889,209.398 221.485,198.398 221.586,211.398 
	233.681,204.998 208.791,226.898 188.898,196.398 "/>
<polygon fill="#E1ECF2" points="183.9,202.998 191.896,208.298 188.898,196.398 208.791,226.898 182.5,207.398 182.626,207.45 
	190.798,210.798 "/>
<polygon fill="#F1F8F9" points="5.565,282.498 20.06,257.598 19.859,276.098 37.226,261.321 37.253,261.298 2.166,307.498 
	0.467,304.049 0.467,259.039 3.666,252.698 "/>
<polygon fill="#EAE1C7" points="0,305.674 0,304.049 1.699,307.498 "/>
</svg>
