<?xml version="1.0" encoding="utf-8"?>
<!-- Generator: Adobe Illustrator 16.0.4, SVG Export Plug-In . SVG Version: 6.00 Build 0)  -->
<!DOCTYPE svg PUBLIC "-//W3C//DTD SVG 1.1//EN" "http://www.w3.org/Graphics/SVG/1.1/DTD/svg11.dtd">
<svg version="1.1" id="back_x5F_mountain" xmlns="http://www.w3.org/2000/svg" xmlns:xlink="http://www.w3.org/1999/xlink" x="0px"
	 y="0px" width="1280px" height="385px" viewBox="0 0 1280 385" enable-background="new 0 0 1280 385" xml:space="preserve">
<g id="Mountain_plan_1_1_">
	<path fill="#3C5F83" d="M387.685,250.74L357.4,286.9l20.201-23.9H377.6l10.101-12.1l13.248,12.777l-8.954-5.682l-0.895,7.618
		l-4.246-6.299l-6.953,6.289l0.053-0.196L369.4,285.303l-12,1.499l-149-130.7l24.98,21.912l-12.18-6.412l-0.101,13l-8.6-11
		l-8.8,13.5l-0.101-15.5l-14.942,14.844L167.8,218.502l-7.1-3l-23.9,36.6L115.4,225.202L36.772,121.679L19.4,106.902l0.2,18.5
		l-14.5-24.9l-1.9,29.8L0,123.96v60.25l13.7,14.592L0,234.55V385h525L387.685,250.74z M215.7,315.902l-7.2-8.4l23.7-68.6l13-10.7
		L215.7,315.902z M353.9,325.702l33.6-53.101l3.2,11.101L353.9,325.702z"/>
	<path fill="#3C5F83" d="M1268.634,174.059l-11.6-22.801l-13.6,22.634l-25.7,84.167l-64.48-45.387l-0.22,0.187l-14.763-9.712
		l-18.037-6.988l4.8,15l-14.2-12.6l-4,16.8l-3.6-12.2l-14.977,13.279l-36.324,82.32l-32.8-35.1l-5.6,9.1l-14.271-13.473
		l-0.229,0.173l-25.141-22.572l-14.862-6.214l10.402,16.387l-14.5-12l-3.399,17.399l-3.94-17.864l-14.46,12.465l0.003-0.009
		L897,299.402l23.334-0.645l-39.2,81.101l-58.3-40L768.25,385H1280v-87.302l-11.4-7.696l11.4-32.312V155.348l-9.383-7.39
		L1268.634,174.059z M1117.334,289.658l16.9-45.1l9.199,9L1117.334,289.658z"/>
	<polygon fill="#E8E0BC" points="1280,146.645 1280,145.787 1278.7,145.002 	"/>
	<polygon fill="#5D7891" points="881.3,380.202 920.334,298.758 897,299.402 933.303,247.394 940.872,236.545 933.573,237.011 
		928,242.302 953.4,218.602 953.356,218.643 822.67,339.982 	"/>
	<polygon fill="#5D7891" points="1117.334,289.658 1143.434,253.559 1134.234,244.559 	"/>
	<polygon fill="#5D7891" points="1019.3,264.002 1052.1,299.102 1088.424,216.781 1088.4,216.802 1090.6,202.002 1078.3,211.102 
		1083.7,202.202 1065.976,209.59 1104.3,180.802 1104.135,180.926 1051.655,220.348 999.264,259.285 999.034,259.458 
		1013.7,273.102 	"/>
	<polygon fill="#5D7891" points="1243.52,174.235 1243,174.402 1244,148.875 1229.166,166.102 1233.021,151.402 1211.712,163.902 
		1259.342,123.802 1153.374,213.002 1153.407,213.016 1217.927,258.402 	"/>
	<polygon fill="#E1ECF2" points="1211.712,163.902 1233.021,151.402 1229.359,166.125 1243.478,150.802 1241.767,180 
		1259.467,123.802 	"/>
	<polygon fill="#F1F8F9" points="1243.5,174.402 1241.767,180 1257.2,151.602 1268.8,174.402 1271.2,148.302 1280,155.348 
		1280,140.807 1259,123.802 	"/>
	<polygon fill="#E1ECF2" points="1065.976,209.59 1083.7,202.202 1078.3,211.102 1090.6,202.002 1088.4,216.802 1104.3,180.802 	"/>
	<polygon fill="#F1F8F9" points="933.293,247.391 947.4,235.098 951.534,252.458 955.1,235.403 969.434,247.059 959.403,231.005 
		974.059,237.241 974.699,237.609 953.41,218.602 	"/>
	<polygon fill="#F1F8F9" points="1088.4,216.802 1088.424,216.781 1103.4,203.502 1107,215.702 1111,198.902 1125.2,211.502 
		1120.4,196.502 1138.438,203.49 1139.348,204.089 1104.3,180.802 	"/>
	<polygon fill="#E1ECF2" points="926.491,243.586 936.041,237.336 932.645,248.336 933.303,247.394 953.356,218.643 	"/>
	<polygon fill="#5D7891" points="379.954,265.406 381.531,259.891 377.594,262.719 357.4,286.802 369.4,285.302 	"/>
	<polygon fill="#5D7891" points="1280,297.698 1280,257.689 1268.6,290.002 	"/>
	<polygon fill="#5D7891" points="160.7,215.502 167.8,218.502 188.657,186.445 188.5,186.602 191.5,174.702 183.5,180.002 
		190.4,172.202 182.226,175.55 115.4,225.202 136.8,252.102 	"/>
	<polygon fill="#5D7891" points="208.5,307.502 215.7,315.902 245.2,228.202 232.2,238.902 	"/>
	<polygon fill="#5D7891" points="0,184.21 0,234.55 13.7,198.802 	"/>
	<polygon fill="#5D7891" points="353.9,325.702 390.7,283.702 387.5,272.602 	"/>
	<polygon fill="#F1F8F9" points="386.854,259.315 391.1,265.614 391.994,257.996 401.319,264.07 387.761,250.594 379.9,265.602 	"/>
	<polygon fill="#E1ECF2" points="379.929,265.462 379.877,265.663 387.761,250.594 377.374,263.053 377.375,263.053 
		381.349,260.099 	"/>
	<polygon fill="#F1F8F9" points="188.766,186.453 203.6,171.602 203.7,187.102 212.5,173.602 221.1,184.602 221.2,171.602 
		233.3,178.002 208.4,156.102 188.5,186.602 	"/>
	<polygon fill="#E1ECF2" points="183.5,180.002 191.5,174.702 188.587,186.553 208.4,156.102 182.1,175.602 182.226,175.55 
		190.4,172.202 	"/>
	<polygon fill="#F1F8F9" points="5.1,100.502 19.6,125.402 19.4,106.902 36.772,121.679 36.8,121.702 1.7,75.502 0,78.951 0,123.96 
		3.2,130.302 	"/>
	<path fill="#EAE1C7" d="M1.7,75.502L0,78.951L1.7,75.502z"/>
</g>
</svg>
