<?xml version="1.0" encoding="utf-8"?>
<!-- Generator: Adobe Illustrator 16.0.4, SVG Export Plug-In . SVG Version: 6.00 Build 0)  -->
<!DOCTYPE svg PUBLIC "-//W3C//DTD SVG 1.1//EN" "http://www.w3.org/Graphics/SVG/1.1/DTD/svg11.dtd">
<svg version="1.1" id="mountain_x5F_first_x5F_left"
	 xmlns="http://www.w3.org/2000/svg" xmlns:xlink="http://www.w3.org/1999/xlink" x="0px" y="0px" width="900px" height="420px"
	 viewBox="0 0 900 420" enable-background="new 0 0 900 420" xml:space="preserve">
<g>
	<polygon id="Mountain_6_" fill="#333333" points="0,420 340.281,420 358.298,371.119 353.516,328.955 382.214,238.809 
		399.998,260.618 413,222.815 413,157.305 399.838,124.289 360.69,113 286.869,113 223.18,99 140.98,99 85.669,109.334 
		48.663,121.002 0,118.131 	"/>
	<polygon id="Snow_mountain_8_" fill="#F1F8F9" points="-0.124,118.531 -0.124,192.202 38.142,192.202 48.601,174.754 
		62.855,174.754 80.886,202.46 95.235,170.473 176.546,180.609 186.112,195.11 218.309,195.11 248.291,179.196 238.724,221.361 
		256.66,251.855 282.966,192.202 309.19,192.202 347.537,161.748 377.43,206.822 413.624,157.305 400.149,124.147 360.69,112.715 
		286.869,112.715 223.18,99.145 140.98,99.145 70.827,112.958 	"/>
	<polygon id="Mountain_7_" fill="#7F7F7F" points="377.43,206.822 330.773,259.572 296.109,235.9 224.369,340.586 272.202,324.593 
		241,371.119 159,380 115.4,365 230.354,259.572 238.724,221.361 256.66,251.754 282.966,192 309.19,192 347.537,161.647 	"/>
	<polygon id="Mountain_8_" fill="#7F7F7F" points="294.043,329 306.798,329 372.805,243.29 	"/>
	<polygon id="Mountain_9_" fill="#7F7F7F" points="80.886,202.594 95.235,170.473 176.546,180.609 	"/>
	<polygon id="Snow_mountain_7_" fill="#E1ECF2" points="52.973,114.36 36.57,154.574 22.197,173.616 22.197,147.611 10.337,131.133 
		-0.124,131.133 0,117.663 	"/>
	<polygon id="Snow_mountain_5_" fill="#E1ECF2" points="308.078,146.073 294.043,161.748 282.966,192.202 309.19,192.202 	"/>
	<polygon id="Snow_mountain_6_" fill="#FFFFFF" points="413.624,157.305 376.175,204.396 399.998,260.618 413,222.815 	"/>
	<polygon fill="#7F7F7F" points="0.016,192.031 32.71,229.549 19.921,273.714 26.378,300.739 0,371.934 	"/>
	<polygon fill="#333333" points="353.904,333.176 421.161,266 465,266 482.889,299.088 507,288.998 525,324.25 562,343.125 
		580.149,305.304 606.544,300.031 635.461,343.016 660.257,336.008 723.695,343.004 739.682,361.359 763.805,317.292 802,311.773 
		833,335.321 802.812,420 323,420 	"/>
	<polygon fill="#7F7F7F" points="607,300 580,300 561.999,343 542,387.396 562,395.56 563,380 580.102,343.25 597,347.779 597,317 
		607,323 617.118,335.321 626.67,347.779 644.408,355 656.475,347.579 670.845,350 695,350 704,362.232 723.695,371.934 
		750.356,387.396 760,361.359 760,343 774.3,332 780,332 802,332.176 833,350.4 865,329 840.807,305.241 832,329 802,311.773 
		763.805,317.292 739.682,361.359 723.695,343.004 660.257,336.008 635.461,343.016 	"/>
	<polygon id="Mountain_10_" fill="#7F7F7F" points="410.333,335.321 440.667,302.668 363.027,361.505 358.298,371.119 447,339.668 	
		"/>
	<polygon fill="#7F7F7F" points="353.823,332.176 421.121,288.498 447.49,299 464.982,329 496.995,313.498 553.729,361.359 
		561.999,343 525,324 507,288.498 482.889,295 465,264 421,264 	"/>
</g>
</svg>
